<svg xmlns="http://www.w3.org/2000/svg" width="375" viewBox="0 0 375 375" height="375" version="1.0"><defs><clipPath id="a"><path d="M 69.140625 69.140625 L 306.140625 69.140625 L 306.140625 306.140625 L 69.140625 306.140625 Z M 69.140625 69.140625"/></clipPath></defs><g clip-path="url(#a)"><path fill="#16E0BD" d="M 187.640625 80.992188 C 246.453125 80.992188 294.289062 128.828125 294.289062 187.640625 C 294.289062 246.453125 246.453125 294.289062 187.640625 294.289062 C 128.828125 294.289062 80.992188 246.453125 80.992188 187.640625 C 80.992188 128.828125 128.828125 80.992188 187.640625 80.992188 M 187.640625 69.140625 C 122.191406 69.140625 69.140625 122.191406 69.140625 187.640625 C 69.140625 253.089844 122.191406 306.140625 187.640625 306.140625 C 253.089844 306.140625 306.140625 253.089844 306.140625 187.640625 C 306.140625 122.191406 253.089844 69.140625 187.640625 69.140625 Z M 187.640625 69.140625"/></g><g fill="#FFF"><g><g><path d="M 77.453125 -15.75 L 83.0625 0 L 117.148438 0 L 77.234375 -107.871094 L 41.855469 -107.871094 L 1.511719 0 L 35.382812 0 L 41.207031 -15.75 Z M 67.960938 -41.636719 L 50.699219 -41.636719 L 59.546875 -71.195312 Z M 67.960938 -41.636719" transform="translate(98.509 241.541)"/></g></g></g><g fill="#FFF"><g><g><path d="M 77.453125 -15.75 L 83.0625 0 L 117.148438 0 L 77.234375 -107.871094 L 41.855469 -107.871094 L 1.511719 0 L 35.382812 0 L 41.207031 -15.75 Z M 67.960938 -41.636719 L 50.699219 -41.636719 L 59.546875 -71.195312 Z M 67.960938 -41.636719" transform="translate(157.571 241.541)"/></g></g></g></svg>